<?xml version="1.0" encoding="UTF-8"?>
<svg xmlns="http://www.w3.org/2000/svg" width="12pt" height="12pt" viewBox="0 0 12 12" version="1.1">
<g id="surface1">
<path style=" stroke:none;fill-rule:nonzero;fill:rgb(67.45098%,80.784314%,100%);fill-opacity:1;" d="M 2.722656 9.835938 C 1.789062 9.835938 1.121094 9.546875 0.804688 9 C 0.414062 8.324219 0.636719 7.378906 1.429688 6.34375 C 2.160156 5.386719 3.300781 4.433594 4.648438 3.65625 C 5.992188 2.878906 7.390625 2.367188 8.582031 2.214844 C 9.878906 2.046875 10.804688 2.324219 11.195312 3 C 11.585938 3.675781 11.363281 4.617188 10.570312 5.65625 C 9.839844 6.613281 8.699219 7.566406 7.351562 8.34375 C 6.007812 9.121094 4.609375 9.632812 3.417969 9.785156 C 3.171875 9.820312 2.941406 9.835938 2.722656 9.835938 Z M 9.28125 2.867188 C 8.222656 2.867188 6.664062 3.304688 5 4.265625 C 3.730469 4.996094 2.664062 5.886719 1.988281 6.769531 C 1.386719 7.554688 1.175781 8.242188 1.414062 8.648438 C 1.886719 9.46875 4.296875 9.292969 7 7.734375 C 8.269531 7.003906 9.335938 6.113281 10.011719 5.230469 C 10.613281 4.445312 10.824219 3.757812 10.585938 3.351562 C 10.40625 3.039062 9.9375 2.867188 9.28125 2.867188 Z M 9.28125 2.867188 "/>
<path style=" stroke:none;fill-rule:nonzero;fill:rgb(67.45098%,80.784314%,100%);fill-opacity:1;" d="M 8.582031 2.214844 C 7.789062 2.316406 6.902344 2.578125 6 2.972656 L 6 3.742188 C 7.277344 3.144531 8.4375 2.867188 9.28125 2.867188 C 9.9375 2.867188 10.40625 3.039062 10.585938 3.351562 C 10.824219 3.757812 10.613281 4.445312 10.011719 5.230469 C 9.335938 6.113281 8.269531 7.003906 7 7.734375 C 6.660156 7.929688 6.328125 8.105469 6 8.257812 L 6 9.027344 C 6.449219 8.832031 6.902344 8.601562 7.351562 8.34375 C 8.699219 7.566406 9.839844 6.613281 10.570312 5.65625 C 11.363281 4.621094 11.585938 3.675781 11.195312 3 C 10.804688 2.324219 9.878906 2.046875 8.582031 2.214844 Z M 8.582031 2.214844 "/>
<path style=" stroke:none;fill-rule:nonzero;fill:rgb(67.45098%,80.784314%,100%);fill-opacity:1;" d="M 9.277344 9.835938 C 9.058594 9.835938 8.828125 9.820312 8.582031 9.785156 C 7.390625 9.632812 5.992188 9.121094 4.648438 8.34375 C 3.300781 7.566406 2.160156 6.613281 1.429688 5.65625 C 0.636719 4.621094 0.414062 3.675781 0.804688 3 C 1.195312 2.324219 2.121094 2.046875 3.417969 2.214844 C 4.609375 2.367188 6.007812 2.878906 7.351562 3.65625 C 8.699219 4.433594 9.839844 5.386719 10.570312 6.34375 C 11.363281 7.382812 11.585938 8.324219 11.195312 9 C 10.878906 9.546875 10.210938 9.835938 9.277344 9.835938 Z M 2.71875 2.867188 C 2.0625 2.867188 1.59375 3.035156 1.414062 3.351562 C 1.175781 3.757812 1.386719 4.445312 1.988281 5.230469 C 2.664062 6.113281 3.730469 7.003906 5 7.734375 C 6.664062 8.695312 8.222656 9.132812 9.28125 9.132812 C 9.9375 9.132812 10.40625 8.964844 10.585938 8.648438 C 10.824219 8.242188 10.613281 7.554688 10.011719 6.769531 C 9.335938 5.886719 8.269531 4.996094 7 4.265625 C 5.335938 3.304688 3.777344 2.867188 2.71875 2.867188 Z M 2.71875 2.867188 "/>
<path style=" stroke:none;fill-rule:nonzero;fill:rgb(67.45098%,80.784314%,100%);fill-opacity:1;" d="M 7.351562 3.65625 C 6.902344 3.398438 6.449219 3.167969 6 2.972656 L 6 3.742188 C 6.328125 3.898438 6.660156 4.070312 7 4.265625 C 8.269531 4.996094 9.335938 5.886719 10.011719 6.769531 C 10.613281 7.554688 10.824219 8.242188 10.585938 8.648438 C 10.40625 8.960938 9.9375 9.132812 9.28125 9.132812 C 8.4375 9.132812 7.277344 8.855469 6 8.257812 L 6 9.027344 C 6.902344 9.421875 7.789062 9.683594 8.582031 9.785156 C 8.828125 9.820312 9.058594 9.835938 9.277344 9.835938 C 10.210938 9.835938 10.878906 9.546875 11.195312 9 C 11.585938 8.324219 11.363281 7.378906 10.570312 6.34375 C 9.839844 5.386719 8.699219 4.433594 7.351562 3.65625 Z M 7.351562 3.65625 "/>
<path style=" stroke:none;fill-rule:nonzero;fill:rgb(67.45098%,80.784314%,100%);fill-opacity:1;" d="M 7.289062 6 C 7.289062 6.710938 6.710938 7.289062 6 7.289062 C 5.289062 7.289062 4.710938 6.710938 4.710938 6 C 4.710938 5.289062 5.289062 4.710938 6 4.710938 C 6.710938 4.710938 7.289062 5.289062 7.289062 6 Z M 7.289062 6 "/>
<path style=" stroke:none;fill-rule:nonzero;fill:rgb(67.45098%,80.784314%,100%);fill-opacity:1;" d="M 7.289062 6 C 7.289062 5.289062 6.710938 4.710938 6 4.710938 L 6 7.289062 C 6.710938 7.289062 7.289062 6.710938 7.289062 6 Z M 7.289062 6 "/>
<path style=" stroke:none;fill-rule:nonzero;fill:rgb(67.45098%,80.784314%,100%);fill-opacity:1;" d="M 10.824219 4.230469 C 10.242188 4.230469 9.769531 3.757812 9.769531 3.175781 C 9.769531 2.59375 10.242188 2.121094 10.824219 2.121094 C 11.40625 2.121094 11.878906 2.59375 11.878906 3.175781 C 11.878906 3.757812 11.40625 4.230469 10.824219 4.230469 Z M 10.824219 4.230469 "/>
<path style=" stroke:none;fill-rule:nonzero;fill:rgb(67.45098%,80.784314%,100%);fill-opacity:1;" d="M 1.175781 9.878906 C 0.59375 9.878906 0.121094 9.40625 0.121094 8.824219 C 0.121094 8.242188 0.59375 7.769531 1.175781 7.769531 C 1.757812 7.769531 2.230469 8.242188 2.230469 8.824219 C 2.230469 9.40625 1.757812 9.878906 1.175781 9.878906 Z M 1.175781 9.878906 "/>
<path style=" stroke:none;fill-rule:nonzero;fill:rgb(67.45098%,80.784314%,100%);fill-opacity:1;" d="M 6 12 C 5.21875 12 4.515625 11.335938 4.011719 10.128906 C 3.550781 9.019531 3.292969 7.554688 3.292969 6 C 3.292969 4.445312 3.550781 2.980469 4.011719 1.871094 C 4.515625 0.664062 5.21875 0 6 0 C 6.78125 0 7.484375 0.664062 7.988281 1.871094 C 8.449219 2.980469 8.707031 4.445312 8.707031 6 C 8.707031 7.554688 8.449219 9.019531 7.988281 10.128906 C 7.484375 11.335938 6.78125 12 6 12 Z M 6 0.703125 C 5.054688 0.703125 3.996094 2.878906 3.996094 6 C 3.996094 9.121094 5.054688 11.296875 6 11.296875 C 6.945312 11.296875 8.003906 9.121094 8.003906 6 C 8.003906 2.878906 6.945312 0.703125 6 0.703125 Z M 6 0.703125 "/>
<path style=" stroke:none;fill-rule:nonzero;fill:rgb(67.45098%,80.784314%,100%);fill-opacity:1;" d="M 8.003906 6 C 8.003906 9.121094 6.945312 11.296875 6 11.296875 L 6 12 C 6.78125 12 7.484375 11.335938 7.988281 10.128906 C 8.449219 9.019531 8.707031 7.554688 8.707031 6 C 8.707031 4.445312 8.449219 2.980469 7.988281 1.871094 C 7.484375 0.664062 6.78125 0 6 0 L 6 0.703125 C 6.945312 0.703125 8.003906 2.878906 8.003906 6 Z M 8.003906 6 "/>
<path style=" stroke:none;fill-rule:nonzero;fill:rgb(67.45098%,80.784314%,100%);fill-opacity:1;" d="M 4.824219 2.113281 C 4.242188 2.113281 3.769531 1.640625 3.769531 1.058594 C 3.769531 0.476562 4.242188 0.00390625 4.824219 0.00390625 C 5.40625 0.00390625 5.878906 0.476562 5.878906 1.058594 C 5.878906 1.640625 5.40625 2.113281 4.824219 2.113281 Z M 4.824219 2.113281 "/>
<path style=" stroke:none;fill-rule:nonzero;fill:rgb(67.45098%,80.784314%,100%);fill-opacity:1;" d="M 7.175781 11.996094 C 6.59375 11.996094 6.121094 11.523438 6.121094 10.941406 C 6.121094 10.359375 6.59375 9.886719 7.175781 9.886719 C 7.757812 9.886719 8.230469 10.359375 8.230469 10.941406 C 8.230469 11.523438 7.757812 11.996094 7.175781 11.996094 Z M 7.175781 11.996094 "/>
</g>
</svg>
